<svg width="24" height="24" viewBox="0 0 24 24" fill="none" xmlns="http://www.w3.org/2000/svg">
<path fill-rule="evenodd" clip-rule="evenodd" d="M8 10.7929C8 8.58375 9.79086 6.79289 12 6.79289C14.2091 6.79289 16 8.58375 16 10.7929C16 13.002 14.2091 14.7929 12 14.7929C9.79086 14.7929 8 13.002 8 10.7929ZM12 8.79289C10.8954 8.79289 10 9.68832 10 10.7929C10 11.8975 10.8954 12.7929 12 12.7929C13.1046 12.7929 14 11.8975 14 10.7929C14 9.68832 13.1046 8.79289 12 8.79289Z" fill="black"/>
<path fill-rule="evenodd" clip-rule="evenodd" d="M11.5477 2.06982C11.842 1.97673 12.158 1.97673 12.4523 2.06982C12.6894 2.14482 12.8612 2.27204 12.9743 2.3678C13.0718 2.45036 13.174 2.55265 13.2596 2.63831L14.4142 3.79289L17.8192 3.79289C18.3552 3.79287 18.8176 3.79286 19.1983 3.82447C19.6002 3.85785 19.9997 3.93156 20.3829 4.13065C20.9309 4.41528 21.3776 4.86204 21.6622 5.40997C21.8613 5.79324 21.935 6.19271 21.9684 6.59459C22 6.97525 22 7.43764 22 7.97365V17.6121C22 18.1481 22 18.6105 21.9684 18.9912C21.935 19.3931 21.8613 19.7925 21.6622 20.1758C21.3776 20.7237 20.9309 21.1705 20.3829 21.4551C19.9997 21.6542 19.6002 21.7279 19.1983 21.7613C18.8176 21.7929 18.3553 21.7929 17.8193 21.7929H6.18083C5.64482 21.7929 5.18236 21.7929 4.8017 21.7613C4.39982 21.7279 4.00035 21.6542 3.61708 21.4551C3.06915 21.1705 2.62239 20.7237 2.33776 20.1758C2.13867 19.7925 2.06495 19.3931 2.03158 18.9912C1.99997 18.6105 1.99998 18.1481 2 17.6121V7.97369C1.99998 7.43767 1.99997 6.97526 2.03158 6.59459C2.06495 6.19271 2.13867 5.79324 2.33776 5.40997C2.62239 4.86204 3.06915 4.41528 3.61708 4.13065C4.00035 3.93156 4.39982 3.85785 4.8017 3.82447C5.18237 3.79286 5.64478 3.79287 6.1808 3.79289L9.58579 3.79289L10.7403 2.63836C10.8259 2.55268 10.9282 2.45037 11.0257 2.3678C11.1388 2.27204 11.3106 2.14482 11.5477 2.06982ZM12 4.20711L10.4142 5.79289H6.22C5.63373 5.79289 5.25517 5.7937 4.96722 5.81761C4.69125 5.84053 4.58924 5.8794 4.53903 5.90548C4.35638 6.00036 4.20746 6.14928 4.11259 6.33192C4.08651 6.38213 4.04764 6.48414 4.02472 6.76012C4.00081 7.04806 4 7.42662 4 8.01289V17.5729C4 18.1592 4.00081 18.5377 4.02472 18.8257C4.04764 19.1016 4.08651 19.2037 4.11259 19.2539C4.20746 19.4365 4.35638 19.5854 4.53903 19.6803C4.58924 19.7064 4.69125 19.7453 4.96722 19.7682C5.00705 19.7715 5.04861 19.7744 5.09221 19.7768C5.53633 17.5061 7.53186 15.793 9.92641 15.793H14.0736C16.4681 15.793 18.4637 17.5061 18.9078 19.7768C18.9514 19.7744 18.993 19.7715 19.0328 19.7682C19.3088 19.7453 19.4108 19.7064 19.461 19.6803C19.6436 19.5854 19.7925 19.4365 19.8874 19.2539C19.9135 19.2037 19.9524 19.1016 19.9753 18.8257C19.9992 18.5377 20 18.1592 20 17.5729V8.01289C20 7.42662 19.9992 7.04806 19.9753 6.76012C19.9524 6.48414 19.9135 6.38213 19.8874 6.33192C19.7925 6.14928 19.6436 6.00036 19.461 5.90548C19.4108 5.8794 19.3088 5.84053 19.0328 5.81761C18.7448 5.7937 18.3663 5.79289 17.78 5.79289H13.5858L12 4.20711ZM16.8777 19.7929C16.4857 18.6167 15.3784 17.769 14.0736 17.769H9.92641C8.62164 17.769 7.51433 18.6167 7.12234 19.7929H16.8777Z" fill="black"/>
</svg>
